# Blender 4.2.0
# www.blender.org
mtllib colormap.mtl
o railroad-straight
v 0.087500 0.000000 -0.250306
v 0.062500 0.000000 -0.250306
v 0.087500 0.025000 -0.250306
v 0.062500 0.025000 -0.250306
v 0.087500 0.025000 -0.500000
v 0.087500 0.025000 -0.375473
v 0.062500 0.025000 -0.500000
v 0.062500 0.025000 -0.375473
v 0.087500 0.000000 -0.500000
v 0.087500 0.000000 -0.375473
v 0.062500 0.000000 -0.500000
v 0.062500 0.000000 -0.375473
v -0.062500 0.000000 -0.250306
v -0.087500 0.000000 -0.250306
v -0.062500 0.025000 -0.250306
v -0.087500 0.025000 -0.250306
v -0.062500 0.025000 -0.500000
v -0.062500 0.025000 -0.375473
v -0.087500 0.025000 -0.500000
v -0.087500 0.025000 -0.375473
v -0.062500 0.000000 -0.500000
v -0.062500 0.000000 -0.375473
v -0.087500 0.000000 -0.500000
v -0.087500 0.000000 -0.375473
v 0.087500 0.000000 -0.000000
v 0.062500 0.000000 -0.000000
v 0.087500 0.025000 -0.000000
v 0.062500 0.025000 -0.000000
v 0.087500 0.025000 -0.125030
v 0.062500 0.025000 -0.125030
v 0.087500 0.000000 -0.125030
v 0.062500 0.000000 -0.125030
v -0.062500 0.000000 -0.000000
v -0.087500 0.000000 -0.000000
v -0.062500 0.025000 -0.000000
v -0.087500 0.025000 -0.000000
v -0.062500 0.025000 -0.125030
v -0.087500 0.025000 -0.125030
v -0.062500 0.000000 -0.125030
v -0.087500 0.000000 -0.125030
v 0.087500 0.000000 0.250306
v 0.062500 0.000000 0.250306
v 0.087500 0.025000 0.250306
v 0.062500 0.025000 0.250306
v 0.087500 0.025000 0.125030
v 0.062500 0.025000 0.125030
v 0.087500 0.000000 0.125030
v 0.062500 0.000000 0.125030
v -0.062500 0.000000 0.250306
v -0.087500 0.000000 0.250306
v -0.062500 0.025000 0.250306
v -0.087500 0.025000 0.250306
v -0.062500 0.025000 0.125030
v -0.087500 0.025000 0.125030
v -0.062500 0.000000 0.125030
v -0.087500 0.000000 0.125030
v 0.087500 0.000000 0.500000
v 0.062500 0.000000 0.500000
v 0.087500 0.025000 0.500000
v 0.062500 0.025000 0.500000
v 0.087500 0.025000 0.375473
v 0.062500 0.025000 0.375473
v 0.087500 0.000000 0.375473
v 0.062500 0.000000 0.375473
v -0.062500 0.000000 0.500000
v -0.087500 0.000000 0.500000
v -0.062500 0.025000 0.500000
v -0.087500 0.025000 0.500000
v -0.062500 0.025000 0.375473
v -0.087500 0.025000 0.375473
v -0.062500 0.000000 0.375473
v -0.087500 0.000000 0.375473
v -0.112500 0.018750 -0.429435
v -0.112500 0.018750 -0.404434
v -0.075000 0.018750 -0.429435
v -0.075000 0.018750 -0.404434
v -0.075000 0.012500 -0.429435
v -0.112500 0.012500 -0.429435
v -0.112500 0.012500 -0.404434
v -0.075000 0.012500 -0.404434
v 0.112500 0.018750 -0.429435
v 0.112500 0.018750 -0.404434
v 0.075000 0.018750 -0.429435
v 0.075000 0.018750 -0.404434
v 0.075000 0.012500 -0.429435
v 0.112500 0.012500 -0.429435
v 0.112500 0.012500 -0.404434
v 0.075000 0.012500 -0.404434
v 0.125000 0.000000 -0.385684
v -0.125000 0.000000 -0.385684
v 0.125000 0.012500 -0.385684
v -0.125000 0.012500 -0.385684
v -0.125000 0.000000 -0.448184
v -0.125000 0.012500 -0.448184
v -0.125000 0.000000 -0.416934
v -0.125000 0.012500 -0.416934
v 0.125000 0.000000 -0.448184
v 0.125000 0.000000 -0.416934
v 0.125000 0.012500 -0.448184
v 0.125000 0.012500 -0.416934
v -0.112500 0.018750 -0.262806
v -0.112500 0.018750 -0.237806
v -0.075000 0.018750 -0.262806
v -0.075000 0.018750 -0.237806
v -0.075000 0.012500 -0.262806
v -0.112500 0.012500 -0.262806
v -0.112500 0.012500 -0.237806
v -0.075000 0.012500 -0.237806
v 0.112500 0.018750 -0.262806
v 0.112500 0.018750 -0.237806
v 0.075000 0.018750 -0.262806
v 0.075000 0.018750 -0.237806
v 0.075000 0.012500 -0.262806
v 0.112500 0.012500 -0.262806
v 0.112500 0.012500 -0.237806
v 0.075000 0.012500 -0.237806
v 0.125000 0.000000 -0.219056
v -0.125000 0.000000 -0.219056
v 0.125000 0.012500 -0.219056
v -0.125000 0.012500 -0.219056
v -0.125000 0.000000 -0.281556
v -0.125000 0.012500 -0.281556
v -0.125000 0.000000 -0.250306
v -0.125000 0.012500 -0.250306
v 0.125000 0.000000 -0.281556
v 0.125000 0.000000 -0.250306
v 0.125000 0.012500 -0.281556
v 0.125000 0.012500 -0.250306
v -0.112500 0.018750 -0.095881
v -0.112500 0.018750 -0.070881
v -0.075000 0.018750 -0.095881
v -0.075000 0.018750 -0.070881
v -0.075000 0.012500 -0.095881
v -0.112500 0.012500 -0.095881
v -0.112500 0.012500 -0.070881
v -0.075000 0.012500 -0.070881
v 0.112500 0.018750 -0.095881
v 0.112500 0.018750 -0.070881
v 0.075000 0.018750 -0.095881
v 0.075000 0.018750 -0.070881
v 0.075000 0.012500 -0.095881
v 0.112500 0.012500 -0.095881
v 0.112500 0.012500 -0.070881
v 0.075000 0.012500 -0.070881
v 0.125000 0.000000 -0.052132
v -0.125000 0.000000 -0.052132
v 0.125000 0.012500 -0.052132
v -0.125000 0.012500 -0.052132
v -0.125000 0.000000 -0.114632
v -0.125000 0.012500 -0.114632
v -0.125000 0.000000 -0.083382
v -0.125000 0.012500 -0.083382
v 0.125000 0.000000 -0.114632
v 0.125000 0.000000 -0.083382
v 0.125000 0.012500 -0.114632
v 0.125000 0.012500 -0.083382
v -0.112500 0.018750 0.070881
v -0.112500 0.018750 0.095882
v -0.075000 0.018750 0.070881
v -0.075000 0.018750 0.095882
v -0.075000 0.012500 0.070881
v -0.112500 0.012500 0.070881
v -0.112500 0.012500 0.095882
v -0.075000 0.012500 0.095882
v 0.112500 0.018750 0.070881
v 0.112500 0.018750 0.095882
v 0.075000 0.018750 0.070881
v 0.075000 0.018750 0.095882
v 0.075000 0.012500 0.070881
v 0.112500 0.012500 0.070881
v 0.112500 0.012500 0.095882
v 0.075000 0.012500 0.095882
v 0.125000 0.000000 0.114631
v -0.125000 0.000000 0.114631
v 0.125000 0.012500 0.114631
v -0.125000 0.012500 0.114631
v -0.125000 0.000000 0.052131
v -0.125000 0.012500 0.052131
v -0.125000 0.000000 0.083381
v -0.125000 0.012500 0.083381
v 0.125000 0.000000 0.052131
v 0.125000 0.000000 0.083381
v 0.125000 0.012500 0.052131
v 0.125000 0.012500 0.083381
v -0.112500 0.018750 0.237806
v -0.112500 0.018750 0.262806
v -0.075000 0.018750 0.237806
v -0.075000 0.018750 0.262806
v -0.075000 0.012500 0.237806
v -0.112500 0.012500 0.237806
v -0.112500 0.012500 0.262806
v -0.075000 0.012500 0.262806
v 0.112500 0.018750 0.237806
v 0.112500 0.018750 0.262806
v 0.075000 0.018750 0.237806
v 0.075000 0.018750 0.262806
v 0.075000 0.012500 0.237806
v 0.112500 0.012500 0.237806
v 0.112500 0.012500 0.262806
v 0.075000 0.012500 0.262806
v 0.125000 0.000000 0.281556
v -0.125000 0.000000 0.281556
v 0.125000 0.012500 0.281556
v -0.125000 0.012500 0.281556
v -0.125000 0.000000 0.219056
v -0.125000 0.012500 0.219056
v -0.125000 0.000000 0.250306
v -0.125000 0.012500 0.250306
v 0.125000 0.000000 0.219056
v 0.125000 0.000000 0.250306
v 0.125000 0.012500 0.219056
v 0.125000 0.012500 0.250306
v -0.112500 0.018750 0.404435
v -0.112500 0.018750 0.429434
v -0.075000 0.018750 0.404435
v -0.075000 0.018750 0.429434
v -0.075000 0.012500 0.404435
v -0.112500 0.012500 0.404435
v -0.112500 0.012500 0.429434
v -0.075000 0.012500 0.429434
v 0.112500 0.018750 0.404435
v 0.112500 0.018750 0.429434
v 0.075000 0.018750 0.404435
v 0.075000 0.018750 0.429434
v 0.075000 0.012500 0.404435
v 0.112500 0.012500 0.404435
v 0.112500 0.012500 0.429434
v 0.075000 0.012500 0.429434
v 0.125000 0.000000 0.448184
v -0.125000 0.000000 0.448184
v 0.125000 0.012500 0.448184
v -0.125000 0.012500 0.448184
v -0.125000 0.000000 0.385684
v -0.125000 0.012500 0.385684
v -0.125000 0.000000 0.416934
v -0.125000 0.012500 0.416934
v 0.125000 0.000000 0.385684
v 0.125000 0.000000 0.416934
v 0.125000 0.012500 0.385684
v 0.125000 0.012500 0.416934
vn 0.7071 0.7071 -0.0000
vn -0.7071 0.7071 0.0001
vn -0.7071 0.7071 -0.0000
vn 1.0000 -0.0000 -0.0000
vn -1.0000 -0.0000 -0.0000
vn -0.0000 -1.0000 -0.0000
vn -0.0000 -0.0000 1.0000
vn 0.7071 0.7071 -0.0001
vn -0.7071 0.7071 -0.0001
vn -0.0000 -0.0000 -1.0000
vn -0.0000 1.0000 -0.0000
vn 0.7071 0.7071 0.0001
vt 0.449126 0.560590
vt 0.449126 0.360590
vt 0.098651 0.593067
vt 0.098651 0.393067
vt 0.218750 0.475000
vt 0.218750 0.275000
s 0
usemtl colormap
f 6/1/1 7/1/2 8/1/3
f 8/1/2 3/1/1 6/1/1
f 9/2/4 6/1/1 10/2/4
f 12/2/5 7/1/3 11/2/5
f 2/2/5 8/1/3 12/2/5
f 8/1/3 2/2/5 4/1/3
f 9/2/6 12/2/6 11/2/6
f 15/1/7 14/2/7 13/2/7
f 14/2/7 15/1/7 16/1/7
f 20/1/2 15/1/1 18/1/1
f 15/1/8 20/1/3 16/1/3
f 15/1/1 22/2/4 18/1/1
f 24/2/5 19/1/3 23/2/5
f 19/1/3 24/2/5 20/1/3
f 14/2/5 20/1/3 24/2/5
f 20/1/3 14/2/5 16/1/3
f 22/2/6 14/2/6 24/2/6
f 27/1/1 30/1/3 28/1/3
f 31/2/4 27/1/1 25/2/4
f 32/2/5 4/1/3 2/2/5
f 4/1/3 32/2/5 30/1/3
f 26/2/5 30/1/3 32/2/5
f 30/1/9 26/2/5 28/1/3
f 26/2/6 31/2/6 25/2/6
f 31/2/6 26/2/6 32/2/6
f 35/1/7 34/2/7 33/2/7
f 34/2/7 35/1/7 36/1/7
f 40/2/5 16/1/3 14/2/5
f 16/1/3 40/2/5 38/1/3
f 34/2/5 38/1/3 40/2/5
f 38/1/9 34/2/5 36/1/3
f 16/1/10 13/2/10 14/2/10
f 39/2/6 34/2/6 40/2/6
f 40/2/6 13/2/6 39/2/6
f 43/1/7 42/2/7 41/2/7
f 43/1/1 47/2/4 45/1/1
f 48/2/6 25/2/6 47/2/6
f 25/2/6 48/2/6 26/2/6
f 51/1/7 50/2/7 49/2/7
f 50/2/7 51/1/7 52/1/7
f 36/1/3 53/1/1 35/1/1
f 53/1/1 36/1/3 54/1/3
f 54/1/3 51/1/1 53/1/1
f 51/1/1 54/1/3 52/1/3
f 33/2/4 53/1/1 55/2/4
f 51/1/1 55/2/4 53/1/1
f 55/2/4 51/1/1 49/2/4
f 36/1/9 56/2/5 54/1/3
f 50/2/5 54/1/3 56/2/5
f 54/1/3 50/2/5 52/1/3
f 50/2/6 55/2/6 49/2/6
f 55/2/6 50/2/6 56/2/6
f 44/1/2 61/1/1 43/1/1
f 61/1/1 41/2/4 43/1/1
f 63/2/4 59/1/1 57/2/4
f 44/1/3 64/2/5 62/1/3
f 58/2/5 62/1/3 64/2/5
f 62/1/3 58/2/5 60/1/3
f 44/1/10 41/2/10 42/2/10
f 63/2/6 58/2/6 64/2/6
f 66/2/7 67/1/7 68/1/7
f 69/1/1 49/2/4 51/1/1
f 49/2/4 69/1/1 71/2/4
f 72/2/5 52/1/3 50/2/5
f 52/1/3 72/2/5 70/1/3
f 66/2/5 70/1/3 72/2/5
f 70/1/3 66/2/5 68/1/3
f 66/2/6 71/2/6 65/2/6
f 71/2/6 66/2/6 72/2/6
f 49/2/6 72/2/6 50/2/6
f 76/3/7 74/3/7 80/4/7
f 73/3/3 78/4/5 74/3/3
f 73/3/3 74/3/3 75/3/11
f 82/3/7 88/4/7 87/4/7
f 91/5/7 90/6/7 89/6/7
f 90/6/7 91/5/7 92/5/7
f 95/6/5 94/5/3 93/6/5
f 94/5/3 95/6/5 96/5/3
f 97/6/6 95/6/6 93/6/6
f 95/6/6 97/6/6 98/6/6
f 98/6/6 90/6/6 95/6/6
f 94/5/9 100/5/1 99/5/1
f 100/5/12 94/5/3 96/5/3
f 96/5/9 91/5/1 100/5/1
f 100/5/1 97/6/4 99/5/1
f 97/6/4 100/5/1 98/6/4
f 91/5/1 98/6/4 100/5/1
f 98/6/4 91/5/1 89/6/4
f 94/5/10 97/6/10 93/6/10
f 97/6/10 94/5/10 99/5/10
f 104/3/7 102/3/7 108/4/7
f 107/4/7 108/4/7 102/3/7
f 107/4/5 102/3/3 106/4/5
f 101/3/3 106/4/5 102/3/3
f 111/3/11 110/3/1 109/3/1
f 111/3/10 114/4/10 113/4/10
f 114/4/10 111/3/10 109/3/10
f 110/3/1 114/4/4 109/3/1
f 114/4/4 110/3/1 115/4/4
f 110/3/7 116/4/7 115/4/7
f 116/4/7 110/3/7 112/3/7
f 125/6/6 123/6/6 121/6/6
f 123/6/6 125/6/6 126/6/6
f 128/5/1 125/6/4 127/5/1
f 129/3/3 130/3/3 131/3/11
f 139/3/11 138/3/1 137/3/1
f 138/3/1 139/3/11 140/3/11
f 139/3/10 142/4/10 141/4/10
f 142/4/10 139/3/10 137/3/10
f 138/3/1 142/4/4 137/3/1
f 142/4/4 138/3/1 143/4/4
f 144/4/7 138/3/7 140/3/7
f 146/6/7 147/5/7 148/5/7
f 150/5/3 151/6/5 152/5/3
f 153/6/6 151/6/6 149/6/6
f 151/6/6 153/6/6 154/6/6
f 150/5/9 156/5/1 155/5/1
f 156/5/12 150/5/3 152/5/3
f 156/5/1 153/6/4 155/5/1
f 147/5/1 154/6/4 156/5/1
f 150/5/10 153/6/10 149/6/10
f 153/6/10 150/5/10 155/5/10
f 157/3/10 159/3/10 162/4/10
f 161/4/10 162/4/10 159/3/10
f 160/3/11 159/3/11 158/3/3
f 167/3/11 166/3/1 165/3/1
f 170/4/10 167/3/10 165/3/10
f 166/3/1 170/4/4 165/3/1
f 175/5/7 174/6/7 173/6/7
f 174/6/7 175/5/7 176/5/7
f 179/6/5 178/5/3 177/6/5
f 174/6/5 180/5/3 179/6/5
f 180/5/3 174/6/5 176/5/3
f 182/6/6 174/6/6 179/6/6
f 174/6/6 182/6/6 173/6/6
f 184/5/12 178/5/3 180/5/3
f 180/5/9 175/5/1 184/5/1
f 175/5/12 180/5/3 176/5/3
f 175/5/1 182/6/4 184/5/1
f 182/6/4 175/5/1 173/6/4
f 178/5/10 181/6/10 177/6/10
f 188/3/7 186/3/7 192/4/7
f 191/4/7 192/4/7 186/3/7
f 191/4/5 186/3/3 190/4/5
f 189/4/10 190/4/10 187/3/10
f 195/3/11 194/3/1 193/3/1
f 194/3/1 195/3/11 196/3/11
f 195/3/10 198/4/10 197/4/10
f 198/4/4 194/3/1 199/4/4
f 209/6/6 207/6/6 205/6/6
f 207/6/6 209/6/6 210/6/6
f 210/6/6 202/6/6 207/6/6
f 203/5/12 208/5/3 204/5/3
f 212/5/1 209/6/4 211/5/1
f 209/6/4 212/5/1 210/6/4
f 203/5/1 210/6/4 212/5/1
f 210/6/4 203/5/1 201/6/4
f 206/5/10 209/6/10 205/6/10
f 209/6/10 206/5/10 211/5/10
f 219/4/5 214/3/3 218/4/5
f 213/3/3 218/4/5 214/3/3
f 213/3/10 215/3/10 218/4/10
f 217/4/10 218/4/10 215/3/10
f 216/3/11 215/3/11 214/3/3
f 213/3/3 214/3/3 215/3/11
f 223/3/11 222/3/1 221/3/1
f 222/3/1 223/3/11 224/3/11
f 223/3/10 226/4/10 225/4/10
f 222/3/1 226/4/4 221/3/1
f 228/4/7 222/3/7 224/3/7
f 230/6/6 238/6/6 229/6/6
f 240/5/12 234/5/3 236/5/3
f 231/5/12 236/5/3 232/5/3
f 238/6/4 231/5/1 229/6/4
f 234/5/10 237/6/10 233/6/10
f 237/6/10 234/5/10 239/5/10
f 3/1/7 2/2/7 1/2/7
f 2/2/7 3/1/7 4/1/7
f 7/1/3 6/1/8 5/1/1
f 3/1/8 8/1/3 4/1/3
f 6/1/1 9/2/4 5/1/1
f 3/1/1 10/2/4 6/1/1
f 10/2/4 3/1/1 1/2/4
f 7/1/3 12/2/5 8/1/3
f 7/1/10 9/2/10 11/2/10
f 9/2/10 7/1/10 5/1/10
f 2/2/6 10/2/6 1/2/6
f 10/2/6 2/2/6 12/2/6
f 12/2/6 9/2/6 10/2/6
f 19/1/3 18/1/8 17/1/1
f 18/1/1 19/1/2 20/1/3
f 18/1/1 21/2/4 17/1/1
f 21/2/4 18/1/1 22/2/4
f 22/2/4 15/1/1 13/2/4
f 19/1/10 21/2/10 23/2/10
f 21/2/10 19/1/10 17/1/10
f 14/2/6 22/2/6 13/2/6
f 24/2/6 21/2/6 22/2/6
f 21/2/6 24/2/6 23/2/6
f 27/1/7 26/2/7 25/2/7
f 26/2/7 27/1/7 28/1/7
f 4/1/3 29/1/1 3/1/1
f 29/1/1 4/1/3 30/1/3
f 30/1/3 27/1/1 29/1/1
f 29/1/1 1/2/4 3/1/1
f 1/2/4 29/1/1 31/2/4
f 27/1/12 31/2/4 29/1/1
f 4/1/10 1/2/10 2/2/10
f 1/2/10 4/1/10 3/1/10
f 32/2/6 1/2/6 31/2/6
f 1/2/6 32/2/6 2/2/6
f 16/1/3 37/1/1 15/1/1
f 37/1/1 16/1/3 38/1/3
f 38/1/3 35/1/1 37/1/1
f 35/1/1 38/1/3 36/1/3
f 37/1/1 13/2/4 15/1/1
f 13/2/4 37/1/1 39/2/4
f 35/1/12 39/2/4 37/1/1
f 39/2/4 35/1/1 33/2/4
f 13/2/10 16/1/10 15/1/10
f 34/2/6 39/2/6 33/2/6
f 13/2/6 40/2/6 14/2/6
f 42/2/7 43/1/7 44/1/7
f 28/1/3 45/1/1 27/1/1
f 45/1/1 28/1/3 46/1/3
f 46/1/3 43/1/1 45/1/1
f 43/1/1 46/1/3 44/1/3
f 45/1/12 25/2/4 27/1/1
f 25/2/4 45/1/1 47/2/4
f 47/2/4 43/1/1 41/2/4
f 48/2/5 28/1/3 26/2/5
f 28/1/9 48/2/5 46/1/3
f 42/2/5 46/1/3 48/2/5
f 46/1/3 42/2/5 44/1/3
f 28/1/10 25/2/10 26/2/10
f 25/2/10 28/1/10 27/1/10
f 42/2/6 47/2/6 41/2/6
f 47/2/6 42/2/6 48/2/6
f 53/1/12 33/2/4 35/1/1
f 56/2/5 36/1/3 34/2/5
f 36/1/10 33/2/10 34/2/10
f 33/2/10 36/1/10 35/1/10
f 56/2/6 33/2/6 55/2/6
f 33/2/6 56/2/6 34/2/6
f 59/1/7 58/2/7 57/2/7
f 58/2/7 59/1/7 60/1/7
f 61/1/8 44/1/3 62/1/3
f 62/1/3 59/1/8 61/1/1
f 59/1/1 62/1/2 60/1/3
f 41/2/4 61/1/1 63/2/4
f 59/1/1 63/2/4 61/1/1
f 64/2/5 44/1/3 42/2/5
f 41/2/10 44/1/10 43/1/10
f 58/2/6 63/2/6 57/2/6
f 64/2/6 41/2/6 63/2/6
f 41/2/6 64/2/6 42/2/6
f 67/1/7 66/2/7 65/2/7
f 52/1/2 69/1/1 51/1/1
f 69/1/8 52/1/3 70/1/3
f 70/1/3 67/1/8 69/1/1
f 67/1/1 70/1/2 68/1/3
f 67/1/1 71/2/4 69/1/1
f 71/2/4 67/1/1 65/2/4
f 52/1/10 49/2/10 50/2/10
f 49/2/10 52/1/10 51/1/10
f 72/2/6 49/2/6 71/2/6
f 79/4/7 80/4/7 74/3/7
f 79/4/5 74/3/3 78/4/5
f 73/3/10 75/3/10 78/4/10
f 77/4/10 78/4/10 75/3/10
f 76/3/11 75/3/11 74/3/3
f 83/3/11 82/3/1 81/3/1
f 82/3/1 83/3/11 84/3/11
f 83/3/10 86/4/10 85/4/10
f 86/4/10 83/3/10 81/3/10
f 82/3/1 86/4/4 81/3/1
f 86/4/4 82/3/1 87/4/4
f 88/4/7 82/3/7 84/3/7
f 90/6/5 96/5/3 95/6/5
f 96/5/3 90/6/5 92/5/3
f 90/6/6 98/6/6 89/6/6
f 91/5/12 96/5/3 92/5/3
f 101/3/10 103/3/10 106/4/10
f 105/4/10 106/4/10 103/3/10
f 104/3/11 103/3/11 102/3/3
f 101/3/3 102/3/3 103/3/11
f 110/3/1 111/3/11 112/3/11
f 119/5/7 118/6/7 117/6/7
f 118/6/7 119/5/7 120/5/7
f 123/6/5 122/5/3 121/6/5
f 122/5/3 123/6/5 124/5/3
f 118/6/5 124/5/3 123/6/5
f 124/5/3 118/6/5 120/5/3
f 126/6/6 118/6/6 123/6/6
f 118/6/6 126/6/6 117/6/6
f 122/5/9 128/5/1 127/5/1
f 128/5/12 122/5/3 124/5/3
f 124/5/9 119/5/1 128/5/1
f 119/5/12 124/5/3 120/5/3
f 125/6/4 128/5/1 126/6/4
f 119/5/1 126/6/4 128/5/1
f 126/6/4 119/5/1 117/6/4
f 122/5/10 125/6/10 121/6/10
f 125/6/10 122/5/10 127/5/10
f 132/3/7 130/3/7 136/4/7
f 135/4/7 136/4/7 130/3/7
f 135/4/5 130/3/3 134/4/5
f 129/3/3 134/4/5 130/3/3
f 129/3/10 131/3/10 134/4/10
f 133/4/10 134/4/10 131/3/10
f 132/3/11 131/3/11 130/3/3
f 138/3/7 144/4/7 143/4/7
f 147/5/7 146/6/7 145/6/7
f 151/6/5 150/5/3 149/6/5
f 146/6/5 152/5/3 151/6/5
f 152/5/3 146/6/5 148/5/3
f 154/6/6 146/6/6 151/6/6
f 146/6/6 154/6/6 145/6/6
f 152/5/9 147/5/1 156/5/1
f 147/5/12 152/5/3 148/5/3
f 153/6/4 156/5/1 154/6/4
f 154/6/4 147/5/1 145/6/4
f 160/3/7 158/3/7 164/4/7
f 163/4/7 164/4/7 158/3/7
f 163/4/5 158/3/3 162/4/5
f 157/3/3 162/4/5 158/3/3
f 157/3/3 158/3/3 159/3/11
f 166/3/1 167/3/11 168/3/11
f 167/3/10 170/4/10 169/4/10
f 170/4/4 166/3/1 171/4/4
f 166/3/7 172/4/7 171/4/7
f 172/4/7 166/3/7 168/3/7
f 178/5/3 179/6/5 180/5/3
f 181/6/6 179/6/6 177/6/6
f 179/6/6 181/6/6 182/6/6
f 178/5/9 184/5/1 183/5/1
f 184/5/1 181/6/4 183/5/1
f 181/6/4 184/5/1 182/6/4
f 181/6/10 178/5/10 183/5/10
f 185/3/3 190/4/5 186/3/3
f 185/3/10 187/3/10 190/4/10
f 188/3/11 187/3/11 186/3/3
f 185/3/3 186/3/3 187/3/11
f 198/4/10 195/3/10 193/3/10
f 194/3/1 198/4/4 193/3/1
f 194/3/7 200/4/7 199/4/7
f 200/4/7 194/3/7 196/3/7
f 203/5/7 202/6/7 201/6/7
f 202/6/7 203/5/7 204/5/7
f 207/6/5 206/5/3 205/6/5
f 206/5/3 207/6/5 208/5/3
f 202/6/5 208/5/3 207/6/5
f 208/5/3 202/6/5 204/5/3
f 202/6/6 210/6/6 201/6/6
f 206/5/9 212/5/1 211/5/1
f 212/5/12 206/5/3 208/5/3
f 208/5/9 203/5/1 212/5/1
f 216/3/7 214/3/7 220/4/7
f 219/4/7 220/4/7 214/3/7
f 226/4/10 223/3/10 221/3/10
f 226/4/4 222/3/1 227/4/4
f 222/3/7 228/4/7 227/4/7
f 231/5/7 230/6/7 229/6/7
f 230/6/7 231/5/7 232/5/7
f 235/6/5 234/5/3 233/6/5
f 234/5/3 235/6/5 236/5/3
f 230/6/5 236/5/3 235/6/5
f 236/5/3 230/6/5 232/5/3
f 237/6/6 235/6/6 233/6/6
f 235/6/6 237/6/6 238/6/6
f 238/6/6 230/6/6 235/6/6
f 234/5/9 240/5/1 239/5/1
f 236/5/9 231/5/1 240/5/1
f 240/5/1 237/6/4 239/5/1
f 237/6/4 240/5/1 238/6/4
f 231/5/1 238/6/4 240/5/1
